# xmcd
#
# Track frame offsets:
#	150
#	25258
#	48505
#	75682
#	98666
#	125673
#	152182
#	173978
#	197119
#	218616
#	239844
#	268805
#	288180
#	308343
#	331534
#
# Disc length: 4725 seconds
#
# Revision: 0
# Processed by: cddbd v1.5.2PL0 Copyright (c) Steve Scherf et al.
# Submitted via: dBpowerAMP V4.0
#
DISCID=cd12730f
DTITLE=BALKAR S - TUE ME
DYEAR=2006
DGENRE=Ambient
TTITLE0=SDFG
TTITLE1=DF
TTITLE2=SDV
TTITLE3=F
TTITLE4=AJEA
TTITLE5=FGH
TTITLE6=GD
TTITLE7=DGF
TTITLE8=GDDG
TTITLE9=DGHTY
TTITLE10=JH
TTITLE11=JHT
TTITLE12=TYJ
TTITLE13=YTUI
TTITLE14=VB
EXTD=
EXTT0=
EXTT1=
EXTT2=
EXTT3=
EXTT4=
EXTT5=
EXTT6=
EXTT7=
EXTT8=
EXTT9=
EXTT10=
EXTT11=
EXTT12=
EXTT13=
EXTT14=
PLAYORDER=
